<svg width="149" height="123" viewBox="0 0 149 123" fill="none" xmlns="http://www.w3.org/2000/svg">
<rect y="0.562988" width="149" height="4" rx="2" fill="white"/>
<rect y="118.563" width="149" height="4" rx="2" fill="white"/>
<rect y="20.563" width="149" height="2" rx="1" fill="white"/>
<rect x="145" y="122.563" width="122" height="4.00001" rx="2" transform="rotate(-90 145 122.563)" fill="white"/>
<rect y="52.563" width="52" height="4" rx="2" transform="rotate(-90 0 52.563)" fill="white"/>
<rect y="70.9423" width="11" height="4" rx="2" transform="rotate(-90 0 70.9423)" fill="white"/>
<rect y="122.563" width="33.1871" height="4" rx="2" transform="rotate(-90 0 122.563)" fill="white"/>
<circle cx="14" cy="12.563" r="2" fill="white"/>
<circle cx="21" cy="12.563" r="2" fill="white"/>
<circle cx="28" cy="12.563" r="2" fill="white"/>
<path d="M133.932 39.7749C133.932 35.7628 108.688 74.2787 74.2652 80.6981C39.8423 87.1174 21.0244 106.777 25.6141 106.777C29.7409 106.777 114.015 106.777 130.974 106.777C132.631 106.777 133.932 105.455 133.932 103.798C133.932 91.2606 133.932 43.2605 133.932 39.7749Z" fill="#3B3947"/>
<rect x="124.625" y="71.7185" width="24.4111" height="7.45483" rx="1" transform="rotate(90 124.625 71.7185)" fill="#F8CD2B"/>
<rect x="108.568" y="47.1923" width="48.9374" height="7.45483" rx="1" transform="rotate(90 108.568 47.1923)" fill="#F8CD2B"/>
<rect x="92.5117" y="63.2205" width="32.9092" height="7.45483" rx="1" transform="rotate(90 92.5117 63.2205)" fill="#F8CD2B"/>
<rect x="76.4551" y="81.6779" width="14.4518" height="7.45483" rx="1" transform="rotate(90 76.4551 81.6779)" fill="#F8CD2B"/>
<rect x="16" y="74.4423" width="39.3139" height="2.17084" rx="1.08542" fill="white"/>
<rect x="16" y="81.6262" width="39.3139" height="2.17084" rx="1.08542" fill="white"/>
<rect x="16" y="87.9146" width="39.3139" height="2.17084" rx="1.08542" fill="white"/>
<rect x="16" y="94.6121" width="28.439" height="2.17084" rx="1.08542" fill="white"/>
<path d="M36.2789 63.858C44.1523 63.858 50.5581 57.4522 50.5581 49.5788C50.5581 41.7053 44.1523 35.2995 36.2789 35.2995C35.6381 35.2995 35.1186 35.8191 35.1186 36.4598L35.1186 48.4176L23.1608 48.4176C22.52 48.4176 22.0005 48.9372 22.0005 49.5779C21.9996 57.4522 28.4054 63.858 36.2789 63.858ZM36.2789 50.7391C36.9196 50.7391 37.4391 50.2195 37.4391 49.5788L37.4391 37.6764C43.4899 38.2617 48.2367 43.3765 48.2367 49.5788C48.2367 56.1725 42.8725 61.5366 36.2789 61.5366C30.0765 61.5366 24.9618 56.7898 24.3764 50.7391L36.2789 50.7391Z" fill="#F8CD2B"/>
<path d="M21.6598 45.6866L31.8816 45.6866C32.3808 45.6866 32.7856 45.2818 32.7856 44.7826L32.7856 34.5608C32.7856 34.0615 32.3808 33.6567 31.8816 33.6567C25.7469 33.6567 20.7557 38.6479 20.7557 44.7826C20.7557 45.2818 21.1605 45.6866 21.6598 45.6866Z" fill="#F8CD2B"/>
</svg>
