<?xml version="1.0" encoding="utf-8"?>
<!-- Generator: Adobe Illustrator 16.0.0, SVG Export Plug-In . SVG Version: 6.00 Build 0)  -->
<!DOCTYPE svg PUBLIC "-//W3C//DTD SVG 1.1//EN" "http://www.w3.org/Graphics/SVG/1.1/DTD/svg11.dtd">
<svg version="1.1" id="Layer_1" xmlns="http://www.w3.org/2000/svg" xmlns:xlink="http://www.w3.org/1999/xlink" x="0px" y="0px"
	 width="149px" height="123px" viewBox="0 0 149 123" enable-background="new 0 0 149 123" xml:space="preserve">
<g>
	<path fill="#FFFFFF" d="M2,70.942c1.104,0,2-0.896,2-2v-7c0-1.104-0.896-2-2-2s-2,0.896-2,2v7C0,70.047,0.896,70.942,2,70.942z"/>
	<path fill="#FFFFFF" d="M147,0.563H2c-1.104,0-2,0.896-2,2v48c0,1.104,0.896,2,2,2s2-0.896,2-2v-28h141v96H4V91.376
		c0-1.104-0.896-2-2-2s-2,0.896-2,2v29.187c0,1.105,0.896,2,2,2h145c1.104,0,2-0.895,2-2v-118C149,1.458,148.104,0.563,147,0.563z
		 M145,20.563H4v-16h141V20.563z"/>
</g>
<circle fill="#FFFFFF" cx="14" cy="12.563" r="2"/>
<circle fill="#FFFFFF" cx="21" cy="12.563" r="2"/>
<circle fill="#FFFFFF" cx="28" cy="12.563" r="2"/>
<path fill="#3B3947" d="M133.932,39.775c0-4.012-25.244,34.504-59.667,40.923c-34.423,6.419-53.241,26.079-48.651,26.079
	c4.126,0,88.401,0,105.36,0c1.656,0,2.957-1.322,2.957-2.979C133.932,91.261,133.932,43.261,133.932,39.775z"/>
<g>
	<path fill="#F8CD2B" d="M124.625,72.719V95.13c0,0.552-0.447,1-1,1h-5.455c-0.553,0-1-0.448-1-1V72.719c0-0.553,0.447-1,1-1h5.455
		C124.178,71.719,124.625,72.166,124.625,72.719z"/>
	<path fill="#F8CD2B" d="M108.568,48.192V95.13c0,0.552-0.448,1-1,1h-5.455c-0.553,0-1-0.448-1-1V48.192c0-0.552,0.447-1,1-1h5.455
		C108.12,47.192,108.568,47.64,108.568,48.192z"/>
	<path fill="#F8CD2B" d="M92.512,64.221V95.13c0,0.552-0.447,1-1,1h-5.455c-0.553,0-1-0.448-1-1V64.221c0-0.553,0.447-1,1-1h5.455
		C92.064,63.221,92.512,63.668,92.512,64.221z"/>
	<path fill="#F8CD2B" d="M76.455,82.678V95.13c0,0.552-0.447,1-1,1H70c-0.553,0-1-0.448-1-1V82.678c0-0.553,0.447-1,1-1h5.455
		C76.008,81.678,76.455,82.125,76.455,82.678z"/>
	<path fill="#FFFFFF" d="M17.085,74.442h37.143c0.6,0,1.085,0.485,1.085,1.085l0,0c0,0.6-0.486,1.086-1.085,1.086H17.085
		c-0.6,0-1.085-0.486-1.085-1.086l0,0C16,74.928,16.486,74.442,17.085,74.442z"/>
	<path fill="#FFFFFF" d="M17.085,81.626h37.143c0.6,0,1.085,0.486,1.085,1.085l0,0c0,0.6-0.486,1.086-1.085,1.086H17.085
		c-0.6,0-1.085-0.486-1.085-1.086l0,0C16,82.112,16.486,81.626,17.085,81.626z"/>
	<path fill="#FFFFFF" d="M17.085,87.914h37.143c0.6,0,1.085,0.486,1.085,1.086l0,0c0,0.6-0.486,1.086-1.085,1.086H17.085
		C16.486,90.086,16,89.6,16,89l0,0C16,88.4,16.486,87.914,17.085,87.914z"/>
	<path fill="#FFFFFF" d="M17.085,94.612h26.268c0.6,0,1.085,0.485,1.085,1.085l0,0c0,0.6-0.486,1.086-1.085,1.086H17.085
		c-0.6,0-1.085-0.486-1.085-1.086l0,0C16,95.098,16.486,94.612,17.085,94.612z"/>
	<path fill="#F8CD2B" d="M36.279,63.857c7.874,0,14.279-6.405,14.279-14.279s-6.406-14.279-14.279-14.279
		c-0.641,0-1.16,0.52-1.16,1.161v11.958H23.161c-0.641,0-1.16,0.52-1.16,1.161C22,57.452,28.405,63.857,36.279,63.857z
		 M36.279,50.739c0.641,0,1.16-0.52,1.16-1.161V37.676c6.051,0.585,10.798,5.7,10.798,11.902c0,6.594-5.364,11.958-11.958,11.958
		c-6.202,0-11.317-4.747-11.902-10.797H36.279z"/>
	<path fill="#F8CD2B" d="M21.66,45.687h10.222c0.499,0,0.904-0.405,0.904-0.904V34.561c0-0.499-0.405-0.904-0.904-0.904
		c-6.135,0-11.126,4.991-11.126,11.126C20.756,45.282,21.161,45.687,21.66,45.687z"/>
</g>
</svg>
