<?xml version="1.0" encoding="utf-8"?>
<!-- Generator: Adobe Illustrator 16.0.0, SVG Export Plug-In . SVG Version: 6.00 Build 0)  -->
<!DOCTYPE svg PUBLIC "-//W3C//DTD SVG 1.1//EN" "http://www.w3.org/Graphics/SVG/1.1/DTD/svg11.dtd">
<svg version="1.1" id="Layer_1" xmlns="http://www.w3.org/2000/svg" xmlns:xlink="http://www.w3.org/1999/xlink" x="0px" y="0px"
	 width="147px" height="120px" viewBox="0 0 147 120" enable-background="new 0 0 147 120" xml:space="preserve">
<path fill="#3B3947" d="M118.135,107.419H15.064c-2.3,0.31-2.471-2.665-2.471-2.665V36.352c0,0,0-2.295,1.532-0.972
	c7.3,6.301,28.79,34.855,55.667,42.076c25.885,6.954,45.498,23.309,49.35,28.387C120.342,107.419,118.135,107.419,118.135,107.419z"
	/>
<g>
	<path fill="#FFFFFF" d="M2,81.614c1.104,0,2-0.896,2-2v-8.302c0-1.104-0.896-2-2-2s-2,0.896-2,2v8.302
		C0,80.719,0.896,81.614,2,81.614z"/>
	<path fill="#FFFFFF" d="M138.643,0.563H8c-4.418,0-8,3.582-8,8v22.66v6.583v7.738c0,1.104,0.896,2,2,2s2-0.896,2-2v-7.738v-6.583
		V8.563c0-2.209,1.791-4,4-4h130.643c2.211,0,4,1.791,4,4V111.74c0,2.209-1.789,4-4,4H8c-2.209,0-4-1.791-4-4v-4.784V93.149v-3.044
		c0-1.104-0.896-2-2-2s-2,0.896-2,2v3.044v13.807v4.784c0,4.418,3.582,8,8,8h130.643c4.42,0,8-3.582,8-8V8.563
		C146.643,4.145,143.063,0.563,138.643,0.563z"/>
</g>
<g>
	<path fill="#FFFFFF" d="M27.523,73.235h-5.361l-1.204,3.34h-1.74l4.887-12.796h1.477l4.896,12.796h-1.731L27.523,73.235z
		 M22.671,71.847h4.351l-2.18-5.985L22.671,71.847z"/>
	<path fill="#FFFFFF" d="M40.97,76.575c-0.094-0.188-0.17-0.521-0.229-1.002c-0.756,0.785-1.658,1.178-2.707,1.178
		c-0.938,0-1.708-0.264-2.312-0.791c-0.598-0.533-0.896-1.207-0.896-2.021c0-0.99,0.375-1.758,1.125-2.303
		c0.756-0.551,1.816-0.826,3.182-0.826h1.582v-0.747c0-0.568-0.17-1.02-0.51-1.354c-0.34-0.34-0.841-0.51-1.503-0.51
		c-0.58,0-1.066,0.146-1.459,0.439s-0.589,0.647-0.589,1.063H35.02c0-0.475,0.167-0.931,0.501-1.371
		c0.34-0.445,0.797-0.797,1.371-1.055c0.58-0.258,1.216-0.387,1.907-0.387c1.096,0,1.954,0.275,2.575,0.827
		c0.621,0.544,0.943,1.297,0.967,2.258v4.377c0,0.873,0.111,1.567,0.334,2.083v0.141H40.97z M38.271,75.336
		c0.51,0,0.993-0.132,1.45-0.396s0.788-0.606,0.993-1.028v-1.951H39.44c-1.992,0-2.988,0.583-2.988,1.749
		c0,0.51,0.17,0.908,0.51,1.195S37.738,75.336,38.271,75.336z"/>
	<path fill="none" stroke="#F8CD2B" d="M92.181,38.135h33.626c0.828,0,1.5,0.672,1.5,1.5v31.335c0,0.828-0.672,1.5-1.5,1.5H92.181
		c-0.829,0-1.5-0.672-1.5-1.5V39.635C90.681,38.807,91.352,38.135,92.181,38.135z"/>
	<path fill="#F8CD2B" d="M126.605,71.081c0.287,0.267,0.381,0.69,0.211,0.946c-0.168,0.256-0.537,0.246-0.822-0.02L91.387,39.706
		c-0.285-0.266-0.379-0.688-0.211-0.945c0.169-0.255,0.538-0.247,0.822,0.018L126.605,71.081z"/>
	<path fill="#F8CD2B" d="M91.913,72.096c-0.288,0.266-0.655,0.271-0.823,0.014c-0.167-0.258-0.069-0.681,0.217-0.944l34.775-32.046
		c0.286-0.264,0.654-0.27,0.82-0.012c0.168,0.256,0.07,0.681-0.215,0.943L91.913,72.096z"/>
	<path fill="#F8CD2B" d="M91.332,22.348h35.322c0.553,0,1,0.448,1,1v5.717c0,0.552-0.447,1-1,1H91.332c-0.553,0-1-0.448-1-1v-5.717
		C90.332,22.795,90.779,22.348,91.332,22.348z"/>
	<path fill="#F8CD2B" d="M90.026,36.656h1.688c0.553,0,1,0.448,1,1v1.969c0,0.552-0.447,1-1,1h-1.688c-0.552,0-1-0.448-1-1v-1.969
		C89.026,37.104,89.475,36.656,90.026,36.656z"/>
	<path fill="#F8CD2B" d="M126.277,36.656h1.689c0.553,0,1,0.448,1,1v1.969c0,0.552-0.447,1-1,1h-1.689c-0.552,0-1-0.448-1-1v-1.969
		C125.277,37.104,125.726,36.656,126.277,36.656z"/>
	<path fill="#F8CD2B" d="M90.026,70.506h1.688c0.553,0,1,0.447,1,1v1.969c0,0.553-0.447,1-1,1h-1.688c-0.552,0-1-0.447-1-1v-1.969
		C89.026,70.953,89.475,70.506,90.026,70.506z"/>
	<path fill="#F8CD2B" d="M126.277,70.506h1.689c0.553,0,1,0.447,1,1v1.969c0,0.553-0.447,1-1,1h-1.689c-0.552,0-1-0.447-1-1v-1.969
		C125.277,70.953,125.726,70.506,126.277,70.506z"/>
	<circle fill="#F8CD2B" cx="24.886" cy="93.149" r="5.915"/>
	<circle fill="#03022D" cx="42.638" cy="93.149" r="5.915"/>
	<circle fill="#FFFFFF" cx="60.39" cy="93.149" r="5.915"/>
	<path fill="#F8CD2B" d="M128.744,88.119c0.326,0,0.59,0.358,0.59,0.803c0,0.443-0.266,0.802-0.59,0.802H89.24
		c-0.324,0-0.588-0.358-0.588-0.802s0.265-0.803,0.588-0.803H128.744z"/>
	<path fill="#F8CD2B" d="M128.744,82.985c0.326,0,0.59,0.358,0.59,0.802c0,0.444-0.266,0.803-0.59,0.803H89.24
		c-0.324,0-0.588-0.358-0.588-0.803c0-0.441,0.265-0.802,0.588-0.802H128.744z"/>
	<path fill="#F8CD2B" d="M128.744,92.666c0.326,0,0.59,0.359,0.59,0.803s-0.266,0.803-0.59,0.803H89.24
		c-0.324,0-0.588-0.359-0.588-0.803c0-0.442,0.265-0.803,0.588-0.803H128.744z"/>
	<path fill="#F8CD2B" d="M128.744,97.452c0.326,0,0.59,0.358,0.59,0.803c0,0.443-0.266,0.803-0.59,0.803H89.24
		c-0.324,0-0.588-0.359-0.588-0.803c0-0.442,0.265-0.803,0.588-0.803H128.744z"/>
	<path fill="#F8CD2B" d="M62.756,19.071l-4.132-2.4c-0.955-0.555-2.179-0.23-2.734,0.725L40.98,43.059
		c-0.052,0.042-0.084,0.101-0.099,0.169l-0.004,0.007l0.002,0.001c-0.005,0.027-0.018,0.052-0.015,0.083l0.731,6.933
		c0.021,0.202,0.233,0.325,0.419,0.243l6.385-2.798c0.028-0.012,0.043-0.036,0.064-0.054l0.002,0.001l0.004-0.006
		c0.053-0.047,0.089-0.104,0.099-0.171l12.81-22.048l2.1-3.615C64.036,20.85,63.711,19.625,62.756,19.071z M47.804,46.798
		l-5.861-3.405l12.362-21.277l5.861,3.406L47.804,46.798z M62.616,21.303l-1.749,3.011l-5.861-3.406l1.749-3.01
		c0.277-0.478,0.89-0.64,1.367-0.362l4.132,2.4C62.731,20.213,62.894,20.825,62.616,21.303z"/>
	<path fill="#FFFFFF" d="M77.593,27.69l-5.167-3.002c-0.955-0.555-2.179-0.23-2.734,0.725l-2.9,4.992
		c0,0.001-0.001,0.001-0.002,0.002s0,0.002-0.001,0.003l-1.901,3.272c0,0.001-0.001,0.001-0.002,0.002s0,0.002-0.001,0.003
		l-3.805,6.549c-0.001,0.001-0.002,0.002-0.003,0.003s0,0.003-0.001,0.004l-1.9,3.27c-0.001,0.001-0.002,0.002-0.003,0.003
		s0,0.003-0.001,0.004l-1.901,3.271c0,0.001-0.001,0.001-0.001,0.002s0,0.001-0.001,0.002l-1.902,3.273
		c0,0.001-0.001,0.001-0.001,0.002s0,0.001-0.001,0.002l-2.788,4.799c-0.555,0.955-0.23,2.179,0.725,2.734l5.167,3.001
		c0.955,0.555,2.179,0.23,2.734-0.724l17.117-29.463C78.872,29.469,78.548,28.245,77.593,27.69z M77.453,29.922L60.335,59.385
		c-0.277,0.478-0.89,0.64-1.367,0.362l-5.167-3.002c-0.478-0.277-0.64-0.89-0.362-1.367l2.438-4.197l3.017,1.752
		c0.333,0.194,0.761,0.081,0.955-0.253c0.193-0.333,0.08-0.761-0.253-0.955l-3.017-1.753l1.203-2.07l3.017,1.753
		c0.333,0.194,0.761,0.081,0.955-0.253c0.193-0.333,0.08-0.761-0.253-0.955l-3.017-1.753l1.203-2.07l3.016,1.752
		c0.333,0.194,0.761,0.081,0.955-0.253c0.194-0.333,0.081-0.761-0.253-0.955l-3.017-1.752l1.203-2.07l3.016,1.752
		c0.333,0.194,0.761,0.081,0.955-0.253c0.194-0.333,0.081-0.761-0.253-0.955l-3.017-1.752l1.203-2.07l3.017,1.753
		c0.333,0.193,0.761,0.08,0.955-0.253c0.194-0.334,0.081-0.761-0.253-0.955l-3.017-1.753l1.202-2.07l3.017,1.753
		c0.333,0.194,0.761,0.081,0.955-0.253c0.194-0.333,0.081-0.761-0.253-0.955l-3.017-1.753l1.203-2.07l3.017,1.753
		c0.333,0.194,0.761,0.081,0.955-0.253c0.194-0.333,0.081-0.761-0.253-0.955l-3.017-1.753l2.551-4.391
		c0.277-0.478,0.89-0.64,1.367-0.362l5.167,3.002C77.568,28.832,77.73,29.444,77.453,29.922z"/>
</g>
</svg>
