<svg width="147" height="120" viewBox="0 0 147 120" fill="none" xmlns="http://www.w3.org/2000/svg">
<path opacity="0.3" d="M118.135 107.419H15.0644C12.7647 107.729 12.5933 104.754 12.5933 104.754V36.3513C12.5933 36.3513 12.5933 34.0561 14.1255 35.3792C21.4254 41.6806 42.915 70.234 69.7926 77.4555C95.6772 84.4091 115.29 100.764 119.143 105.842C120.342 107.419 118.135 107.419 118.135 107.419Z" fill="#EBE89A" fill-opacity="0.8"/>
<path d="M27.5229 73.2356H22.1616L20.9575 76.5754H19.2173L24.104 63.7786H25.5806L30.4761 76.5754H28.7446L27.5229 73.2356ZM22.6714 71.8469H27.022L24.8423 65.8616L22.6714 71.8469Z" fill="white"/>
<path d="M40.9697 76.5754C40.876 76.3879 40.7998 76.054 40.7412 75.5735C39.9854 76.3586 39.083 76.7512 38.0342 76.7512C37.0967 76.7512 36.3262 76.4875 35.7227 75.9602C35.125 75.427 34.8262 74.7532 34.8262 73.9387C34.8262 72.9485 35.2012 72.1809 35.9512 71.636C36.707 71.0852 37.7676 70.8098 39.1328 70.8098H40.7148V70.0627C40.7148 69.4944 40.5449 69.0432 40.2051 68.7092C39.8652 68.3694 39.3643 68.1995 38.7021 68.1995C38.1221 68.1995 37.6357 68.3459 37.2432 68.6389C36.8506 68.9319 36.6543 69.2864 36.6543 69.7024H35.0195C35.0195 69.2278 35.1865 68.7708 35.5205 68.3313C35.8604 67.886 36.3174 67.5344 36.8916 67.2766C37.4717 67.0188 38.1074 66.8899 38.7988 66.8899C39.8945 66.8899 40.7529 67.1653 41.374 67.7161C41.9951 68.261 42.3174 69.0139 42.3408 69.9749V74.3518C42.3408 75.2249 42.4521 75.9192 42.6748 76.4348V76.5754H40.9697ZM38.2715 75.3362C38.7812 75.3362 39.2646 75.2043 39.7217 74.9407C40.1787 74.677 40.5098 74.3342 40.7148 73.9124V71.9612H39.4404C37.4482 71.9612 36.4521 72.5442 36.4521 73.7102C36.4521 74.22 36.6221 74.6184 36.9619 74.9055C37.3018 75.1926 37.7383 75.3362 38.2715 75.3362Z" fill="white"/>
<rect y="108.956" width="20.8499" height="4" rx="2" transform="rotate(-90 0 108.956)" fill="white"/>
<rect y="81.6143" width="12.3013" height="4" rx="2" transform="rotate(-90 0 81.6143)" fill="white"/>
<rect y="47.5435" width="18.3211" height="4" rx="2" transform="rotate(-90 0 47.5435)" fill="white"/>
<path fill-rule="evenodd" clip-rule="evenodd" d="M8 4.56299H138.643C140.853 4.56299 142.643 6.35388 142.643 8.56299V111.74C142.643 113.949 140.853 115.74 138.643 115.74H8C5.79102 115.74 4 113.949 4 111.74V93.1494H0V111.74C0 116.158 3.58154 119.74 8 119.74H138.643C143.062 119.74 146.643 116.158 146.643 111.74V8.56299C146.643 4.14471 143.062 0.562988 138.643 0.562988H8C3.58154 0.562988 0 4.14471 0 8.56299V37.8057H4V8.56299C4 6.35388 5.79102 4.56299 8 4.56299Z" fill="white"/>
<rect x="90.6807" y="38.1354" width="36.6259" height="34.3355" rx="1.5" stroke="#F8CD2B"/>
<path d="M126.606 71.0808C126.892 71.3481 126.986 71.7708 126.817 72.0269C126.648 72.283 126.279 72.2736 125.994 72.0075L91.3867 39.7061C91.1016 39.44 91.0074 39.0174 91.1763 38.7612C91.3447 38.506 91.714 38.5146 91.9979 38.7795L126.606 71.0808Z" fill="#F8CD2B"/>
<path d="M91.9132 72.0961C91.6255 72.3612 91.2579 72.3668 91.0903 72.1094C90.9227 71.8521 91.0203 71.4289 91.3068 71.1649L126.082 39.1187C126.368 38.8547 126.736 38.8492 126.903 39.1065C127.07 39.363 126.973 39.787 126.688 40.0498L91.9132 72.0961Z" fill="#F8CD2B"/>
<rect x="90.3315" y="22.3478" width="37.3233" height="7.71719" rx="1" fill="#F8CD2B"/>
<rect x="89.0264" y="36.6561" width="3.68894" height="3.96947" rx="1" fill="#F8CD2B"/>
<rect x="125.278" y="36.6561" width="3.68894" height="3.96947" rx="1" fill="#F8CD2B"/>
<rect x="89.0264" y="70.5054" width="3.68894" height="3.96947" rx="1" fill="#F8CD2B"/>
<rect x="125.278" y="70.5054" width="3.68894" height="3.96947" rx="1" fill="#F8CD2B"/>
<circle cx="24.8864" cy="93.1494" r="5.91517" fill="#F8CD2B"/>
<circle cx="42.6383" cy="93.1494" r="5.91517" fill="#03022D"/>
<circle cx="60.3903" cy="93.1494" r="5.91517" fill="white"/>
<path d="M128.744 88.1185C129.071 88.1185 129.334 88.4775 129.334 88.9212C129.334 89.3649 129.069 89.7239 128.744 89.7239H89.2408C88.9154 89.7239 88.6519 89.3649 88.6519 88.9212C88.6519 88.4789 88.9168 88.1185 89.2408 88.1185H128.744Z" fill="#F8CD2B"/>
<path d="M128.744 82.9851C129.071 82.9851 129.334 83.3441 129.334 83.7878C129.334 84.2315 129.069 84.5905 128.744 84.5905H89.2408C88.9154 84.5905 88.6519 84.2315 88.6519 83.7878C88.6519 83.3455 88.9168 82.9851 89.2408 82.9851H128.744Z" fill="#F8CD2B"/>
<path d="M128.744 92.6661C129.071 92.6661 129.334 93.0251 129.334 93.4688C129.334 93.9125 129.069 94.2714 128.744 94.2714H89.2408C88.9154 94.2714 88.6519 93.9125 88.6519 93.4688C88.6519 93.0265 88.9168 92.6661 89.2408 92.6661H128.744Z" fill="#F8CD2B"/>
<path d="M128.744 97.452C129.071 97.452 129.334 97.811 129.334 98.2547C129.334 98.6984 129.069 99.0574 128.744 99.0574H89.2408C88.9154 99.0574 88.6519 98.6984 88.6519 98.2547C88.6519 97.8124 88.9168 97.452 89.2408 97.452H128.744Z" fill="#F8CD2B"/>
<path d="M42.016 50.4953C41.8301 50.5768 41.6185 50.4539 41.5972 50.252L40.8657 43.3188C40.84 43.0746 41.1025 42.9046 41.3148 43.0279L48.4317 47.1627C48.644 47.286 48.6263 47.5983 48.4014 47.6968L42.016 50.4953Z" fill="#F8CD2B"/>
<path fill-rule="evenodd" clip-rule="evenodd" d="M58.1222 17.5349L62.254 19.9355C62.7315 20.2129 62.8937 20.8249 62.6163 21.3025L47.6036 47.1424L48.4684 47.6448L63.4811 21.8048C64.0357 20.8497 63.7115 19.6257 62.7564 19.0708L58.6246 16.6703C57.6695 16.1154 56.4454 16.4398 55.8902 17.3949L40.878 43.235L41.7423 43.7372L56.755 17.8972C57.0323 17.4197 57.6446 17.2575 58.1222 17.5349Z" fill="#F8CD2B"/>
<rect x="54.1411" y="20.4057" width="8.77863" height="1.3966" rx="0.6983" transform="rotate(30.1555 54.1411 20.4057)" fill="#F8CD2B"/>
<path fill-rule="evenodd" clip-rule="evenodd" d="M77.0903 28.5548L71.9233 25.553C71.4457 25.2755 70.8337 25.4377 70.5563 25.9153L53.4391 55.3781C53.1617 55.8556 53.3239 56.4677 53.8014 56.7451L58.9684 59.747C59.446 60.0244 60.058 59.8622 60.3355 59.3847L77.4526 29.9219C77.73 29.4443 77.5678 28.8323 77.0903 28.5548ZM72.4256 24.6883C71.4705 24.1334 70.2465 24.4578 69.6916 25.4129L52.5745 54.8757C52.0196 55.8308 52.344 57.0549 53.2991 57.6098L58.4661 60.6117C59.4212 61.1665 60.6452 60.8421 61.2001 59.887L78.3173 30.4242C78.8721 29.4691 78.5477 28.2451 77.5926 27.6902L72.4256 24.6883Z" fill="white"/>
<rect x="65.2358" y="33.0817" width="5.18737" height="1.3966" rx="0.6983" transform="rotate(30.1555 65.2358 33.0817)" fill="white"/>
<rect x="67.1401" y="29.8039" width="5.18737" height="1.3966" rx="0.6983" transform="rotate(30.1555 67.1401 29.8039)" fill="white"/>
<rect x="63.332" y="36.3594" width="5.18737" height="1.3966" rx="0.6983" transform="rotate(30.1555 63.332 36.3594)" fill="white"/>
<rect x="61.4272" y="39.6371" width="5.18737" height="1.3966" rx="0.6983" transform="rotate(30.1555 61.4272 39.6371)" fill="white"/>
<rect x="59.5229" y="42.9149" width="5.18737" height="1.3966" rx="0.6983" transform="rotate(30.1555 59.5229 42.9149)" fill="white"/>
<rect x="57.6187" y="46.1926" width="5.18737" height="1.3966" rx="0.6983" transform="rotate(30.1555 57.6187 46.1926)" fill="white"/>
<rect x="55.7144" y="49.4704" width="5.18737" height="1.3966" rx="0.6983" transform="rotate(30.1555 55.7144 49.4704)" fill="white"/>
</svg>
