<svg width="30" height="28" viewBox="0 0 30 28" fill="none" xmlns="http://www.w3.org/2000/svg">
<path d="M25.3844 0H4.70889C2.60252 0 0.894897 1.68923 0.894897 3.77306V24.2268C0.894897 26.3106 2.60245 27.9999 4.70889 27.9999H14.9059L14.9233 17.9942H12.2957C11.9542 17.9942 11.677 17.7211 11.6757 17.3832L11.6631 14.158C11.6618 13.8184 11.9398 13.5423 12.2831 13.5423H14.906V10.4259C14.906 6.80938 17.1387 4.84014 20.3999 4.84014H23.076C23.4184 4.84014 23.696 5.11474 23.696 5.45352V8.17305C23.696 8.51169 23.4186 8.78622 23.0763 8.78642L21.4341 8.78718C19.6605 8.78718 19.3171 9.6209 19.3171 10.8444V13.5424H23.2142C23.5855 13.5424 23.8736 13.8631 23.8298 14.228L23.4434 17.4532C23.4065 17.7618 23.1419 17.9944 22.8278 17.9944H19.3345L19.3171 28H25.3845C27.4909 28 29.1984 26.3108 29.1984 24.227V3.77306C29.1984 1.68923 27.4908 0 25.3844 0Z" fill="white"/>
</svg>
