<?xml version="1.0" encoding="utf-8"?>
<!-- Generator: Adobe Illustrator 16.0.0, SVG Export Plug-In . SVG Version: 6.00 Build 0)  -->
<!DOCTYPE svg PUBLIC "-//W3C//DTD SVG 1.1//EN" "http://www.w3.org/Graphics/SVG/1.1/DTD/svg11.dtd">
<svg version="1.1" id="Layer_1" xmlns="http://www.w3.org/2000/svg" xmlns:xlink="http://www.w3.org/1999/xlink" x="0px" y="0px"
	 width="122.688px" height="30.199px" viewBox="0 0 122.688 30.199" enable-background="new 0 0 122.688 30.199"
	 xml:space="preserve">
<g>
	<g>
		<g>
			<path fill="#FFFFFF" d="M22.928,14.811c0,5.068-1.329,8.9-3.986,11.496s-6.562,3.893-11.712,3.893H0V0h8.159
				c4.819,0,8.486,1.26,10.999,3.78S22.928,9.977,22.928,14.811z M20.636,14.893c0-4.323-1.1-7.576-3.295-9.76
				c-2.197-2.182-5.422-3.273-9.678-3.273H2.106v26.48h4.999C16.125,28.34,20.636,23.857,20.636,14.893z"/>
			<path fill="#FFFFFF" d="M50.679,30.199H34.175V0h16.504v1.941H36.282v11.424h13.592v1.941H36.282v12.951h14.396V30.199z"/>
			<path fill="#FFFFFF" d="M81.669,0h2.293L72.663,30.199h-1.859L59.546,0h2.252l7.602,20.553c1.156,3.1,1.936,5.426,2.334,6.982
				c0.275-1.033,0.818-2.637,1.633-4.813L81.669,0z"/>
		</g>
	</g>
	<g>
		<path fill="#EA9F22" d="M112.864,15.1L122.688,0h-7.205l-9.824,15.1l9.824,15.1h7.205L112.864,15.1z"/>
		<path fill="#FACD2E" d="M95.849,0l9.824,15.1l-9.824,15.1h7.205l9.826-15.1L103.054,0H95.849z"/>
	</g>
</g>
</svg>
