<svg width="31" height="25" viewBox="0 0 31 25" fill="none" xmlns="http://www.w3.org/2000/svg">
<path d="M2.91415 8.15176C3.29822 8.41782 4.45596 9.208 6.38743 10.5219C8.31896 11.8358 9.79864 12.8475 10.8265 13.557C10.9395 13.6347 11.1794 13.8038 11.5464 14.0644C11.9135 14.3251 12.2186 14.5358 12.4613 14.6966C12.7042 14.8572 12.9978 15.0375 13.3425 15.237C13.687 15.4364 14.0118 15.5863 14.3168 15.6856C14.6218 15.7857 14.9042 15.8352 15.1639 15.8352H15.181H15.1981C15.4578 15.8352 15.7403 15.7856 16.0453 15.6856C16.3502 15.5863 16.6752 15.4362 17.0195 15.237C17.3639 15.0372 17.6576 14.8572 17.9005 14.6966C18.1434 14.5358 18.4481 14.3251 18.8154 14.0644C19.1824 13.8036 19.4226 13.6347 19.5355 13.557C20.5745 12.8475 23.2179 11.0456 27.4648 8.15141C28.2893 7.58616 28.9781 6.9041 29.5315 6.1057C30.0853 5.30766 30.3619 4.47047 30.3619 3.59459C30.3619 2.86266 30.0935 2.23612 29.5569 1.71503C29.0204 1.19381 28.3849 0.93335 27.651 0.93335H2.71077C1.84109 0.93335 1.17181 1.2216 0.703048 1.7981C0.234349 2.37471 0 3.09545 0 3.96026C0 4.65881 0.310725 5.41578 0.931879 6.23072C1.55297 7.04572 2.21395 7.68613 2.91415 8.15176Z" fill="white"/>
<path d="M28.6674 9.93133C24.9629 12.3927 22.15 14.3056 20.2301 15.6696C19.5862 16.1351 19.064 16.4985 18.6629 16.7589C18.2617 17.0195 17.7283 17.2856 17.0618 17.5571C16.3954 17.8291 15.7745 17.9646 15.1983 17.9646H15.181H15.164C14.5879 17.9646 13.9666 17.8291 13.3003 17.5571C12.634 17.2856 12.1002 17.0195 11.6992 16.7589C11.2983 16.4985 10.7759 16.1351 10.1321 15.6696C8.60713 14.5719 5.80028 12.6589 1.71142 9.93133C1.06742 9.51026 0.497006 9.02761 0 8.48438V21.6901C0 22.4224 0.265327 23.0486 0.796278 23.5697C1.32711 24.091 1.96541 24.3516 2.71095 24.3516H27.6512C28.3966 24.3516 29.0348 24.091 29.5657 23.5697C30.0968 23.0484 30.362 22.4224 30.362 21.6901V8.48438C29.8762 9.01637 29.3116 9.49902 28.6674 9.93133Z" fill="white"/>
</svg>
