<?xml version="1.0" encoding="utf-8"?>
<!-- Generator: Adobe Illustrator 16.0.0, SVG Export Plug-In . SVG Version: 6.00 Build 0)  -->
<!DOCTYPE svg PUBLIC "-//W3C//DTD SVG 1.1//EN" "http://www.w3.org/Graphics/SVG/1.1/DTD/svg11.dtd">
<svg version="1.1" id="Layer_1" xmlns="http://www.w3.org/2000/svg" xmlns:xlink="http://www.w3.org/1999/xlink" x="0px" y="0px"
	 width="153px" height="126px" viewBox="0 0 153 126" enable-background="new 0 0 153 126" xml:space="preserve">
<g>
	<path fill="#FFFFFF" d="M90.402,64.593l15.531-6.674c0.564-0.242,1.217,0.019,1.459,0.582l0,0c0.242,0.563-0.018,1.217-0.582,1.459
		l-15.531,6.675c-0.563,0.242-1.217-0.02-1.459-0.582l0,0C89.578,65.488,89.84,64.835,90.402,64.593z"/>
	<path fill="#FFFFFF" d="M86.553,55.552l12.992-10.815c0.471-0.393,1.172-0.329,1.564,0.143l0,0
		c0.393,0.471,0.328,1.172-0.143,1.564L87.975,57.26c-0.471,0.393-1.172,0.329-1.564-0.143l0,0
		C86.018,56.646,86.082,55.945,86.553,55.552z"/>
	<path fill="#FFFFFF" d="M110.63,71.461l-16.788,1.98c-0.609,0.072-1.045,0.625-0.973,1.234l0,0
		c0.072,0.609,0.625,1.045,1.233,0.973l16.788-1.981c0.609-0.071,1.045-0.624,0.973-1.233l0,0
		C111.791,71.824,111.239,71.389,110.63,71.461z"/>
	<path fill="#F8CD2B" d="M60.954,47.841c1.054-0.292,2.164-0.323,3.233-0.089c1.069,0.228,2.066,0.713,2.906,1.413
		c0.84,0.7,1.496,1.594,1.912,2.604l16.612,40.447c0.416,1.012,0.58,2.109,0.477,3.197c-0.104,1.09-0.471,2.137-1.07,3.051
		c-0.6,0.916-1.412,1.67-2.369,2.2c-0.957,0.528-2.029,0.817-3.123,0.84l-34.524,0.708l-6.542,2.688l0.004,0.009l-4.149,1.704
		l-0.004-0.01l-0.54,0.222c-1.742,0.712-3.658,0.879-5.497,0.479c-1.838-0.398-3.513-1.345-4.804-2.714l-1.272,0.522
		c-1.834,0.753-3.892,0.746-5.722-0.018s-3.28-2.224-4.034-4.058l-1.704-4.149c-0.753-1.834-0.747-3.892,0.017-5.721
		c0.764-1.83,2.224-3.281,4.058-4.034l1.272-0.522c-0.044-1.881,0.481-3.731,1.509-5.308c1.028-1.576,2.508-2.804,4.248-3.522
		l11.279-4.633l25.009-23.719C58.932,48.679,59.899,48.134,60.954,47.841z M20.499,100.964l0.691-0.284l-3.976-9.682l-0.691,0.285
		c-0.734,0.301-1.317,0.881-1.623,1.613c-0.306,0.731-0.309,1.555-0.007,2.288l1.704,4.149c0.301,0.734,0.881,1.316,1.613,1.623
		S19.766,101.266,20.499,100.964z M32.072,102.676l9.681-3.977l-8.512-20.725l-9.682,3.977c-1.182,0.487-2.122,1.424-2.614,2.604
		c-0.493,1.179-0.498,2.506-0.014,3.688l4.848,11.805c0.488,1.181,1.424,2.122,2.603,2.614
		C29.563,103.154,30.889,103.16,32.072,102.676z M81.608,94.42c-0.026-0.171-0.073-0.338-0.14-0.499l-16.62-40.444
		c-0.138-0.337-0.356-0.635-0.636-0.869c-0.169-0.141-0.357-0.256-0.558-0.342c-0.131-0.056-0.269-0.1-0.409-0.13
		c-0.356-0.076-0.726-0.065-1.076,0.033c-0.351,0.098-0.672,0.28-0.937,0.531l-24.122,22.87l9.088,22.129l33.242-0.683
		c0.231-0.004,0.46-0.045,0.678-0.119c0.125-0.043,0.246-0.097,0.362-0.161c0.183-0.102,0.351-0.228,0.497-0.374
		c0.109-0.109,0.207-0.229,0.292-0.359c0.199-0.305,0.321-0.653,0.356-1.016C81.645,94.797,81.639,94.606,81.608,94.42z"/>
</g>
<path fill="#3B3947" d="M63.365,61.427c-0.693-1.204-1.608-0.836-1.489,0.547c0.312,3.612,1.558,9.438-1.95,16.34
	c-3.515,6.916-9.642,10.86-11.356,13.352c-0.628,0.913,0.363,1.658,1.471,1.654c4.617-0.02,16.332-0.004,22.774,0.007
	c2.119,0.004,3.565-2.128,2.772-4.095C72.616,81.86,66.37,66.652,63.365,61.427z"/>
<g>
	<path fill="#F8CD2B" d="M41.797,25.87c-1.104,0-2.197,0.217-3.217,0.64c-1.02,0.422-1.947,1.042-2.727,1.823
		c-0.781,0.781-1.4,1.708-1.822,2.728c-0.422,1.02-0.64,2.113-0.639,3.218c0,0.297,0.118,0.583,0.329,0.793
		c0.21,0.211,0.496,0.329,0.793,0.329h16.491c0.298,0,0.583-0.118,0.793-0.329c0.21-0.21,0.329-0.496,0.329-0.793
		c0-1.104-0.217-2.198-0.639-3.219c-0.422-1.02-1.042-1.947-1.823-2.728c-0.781-0.781-1.708-1.4-2.728-1.823
		c-1.021-0.422-2.114-0.64-3.218-0.639H41.797z"/>
	<path fill="#FFFFFF" d="M25.487,34.607h6.092c-0.019-0.11-0.028-0.221-0.027-0.333c0-1.654,0.428-3.281,1.244-4.72
		s1.99-2.643,3.409-3.494c-0.703-0.203-1.432-0.304-2.164-0.299h-1.795c-2.068,0.002-4.051,0.825-5.513,2.288
		s-2.285,3.445-2.288,5.514c0,0.137,0.026,0.272,0.079,0.399c0.052,0.126,0.128,0.242,0.225,0.339
		c0.097,0.097,0.212,0.174,0.338,0.227C25.214,34.58,25.35,34.607,25.487,34.607z"/>
	<g>
		<path fill="#FFFFFF" d="M39.265,13.646c-0.799-0.566-1.77-0.906-2.824-0.906c-2.707,0-4.9,2.194-4.9,4.9s2.194,4.9,4.9,4.9
			c0.507,0,0.987-0.099,1.448-0.242c-0.769-1.021-1.231-2.286-1.231-3.659C36.658,16.576,37.691,14.751,39.265,13.646z"/>
		<path fill="#F8CD2B" d="M42.759,13.74c-0.953,0-1.835,0.285-2.588,0.756c-1.383,0.867-2.313,2.395-2.313,4.144
			c0,1.203,0.452,2.292,1.174,3.145c0.899,1.064,2.227,1.755,3.726,1.755c2.702,0,4.9-2.198,4.9-4.9S45.461,13.74,42.759,13.74z"/>
	</g>
</g>
<g>
	<path fill="#FFFFFF" d="M88.882,29.109c7.883,0,14.272-6.39,14.272-14.273S96.765,0.563,88.882,0.563s-14.273,6.39-14.273,14.273
		S80.999,29.109,88.882,29.109z"/>
	<path fill="#03022D" d="M86.518,14.907v8.742c0,0.126,0.102,0.228,0.227,0.228h3.247c0.126,0,0.228-0.102,0.228-0.228v-8.884h2.354
		c0.119,0,0.217-0.091,0.228-0.209l0.226-2.676c0.012-0.133-0.093-0.247-0.227-0.247h-2.58V9.733c0-0.445,0.361-0.806,0.807-0.806
		h1.813c0.126,0,0.228-0.102,0.228-0.228V6.023c0-0.126-0.102-0.228-0.228-0.228h-3.064c-1.799,0-3.257,1.458-3.257,3.256v2.581
		h-1.623c-0.126,0-0.229,0.103-0.229,0.228v2.677c0,0.126,0.103,0.228,0.229,0.228h1.623V14.907L86.518,14.907z"/>
</g>
<g>
	<path fill="#F8CD2B" d="M134.546,50.804c7.884,0,14.272-6.39,14.272-14.273s-6.389-14.273-14.272-14.273
		c-7.883,0-14.272,6.39-14.272,14.273S126.663,50.804,134.546,50.804z"/>
	<path fill="#03022D" d="M143.577,34.243c0-2.14-1.734-3.874-3.873-3.874h-10.047c-2.14,0-3.873,1.734-3.873,3.874v4.708
		c0,2.14,1.733,3.874,3.873,3.874h10.047c2.139,0,3.873-1.734,3.873-3.874V34.243z M137.238,36.834l-4.006,2.198
		c-0.174,0.094-0.332-0.032-0.332-0.23v-4.51c0-0.2,0.162-0.326,0.336-0.227l4.035,2.313
		C137.449,36.479,137.419,36.737,137.238,36.834z"/>
</g>
<g>
	<path fill="#FFFFFF" d="M138.583,97.619c7.882,0,14.272-6.391,14.272-14.273s-6.391-14.272-14.272-14.272
		c-7.883,0-14.272,6.39-14.272,14.272S130.7,97.619,138.583,97.619z"/>
	<path fill="#03022D" d="M147.252,77.842c-0.559,0.252-1.174,0.406-1.775,0.508c0.285-0.049,0.707-0.566,0.875-0.776
		c0.258-0.319,0.472-0.684,0.592-1.077c0.016-0.03,0.027-0.068-0.004-0.092c-0.037-0.016-0.063-0.008-0.094,0.008
		c-0.673,0.36-1.369,0.621-2.109,0.807c-0.062,0.016-0.107,0-0.146-0.038c-0.062-0.069-0.118-0.135-0.185-0.188
		c-0.311-0.265-0.645-0.473-1.021-0.627c-0.494-0.201-1.035-0.286-1.568-0.252c-0.518,0.034-1.026,0.18-1.486,0.42
		c-0.46,0.241-0.872,0.576-1.199,0.98c-0.339,0.418-0.588,0.912-0.717,1.435c-0.123,0.505-0.113,1.004-0.037,1.515
		c0.012,0.084,0.004,0.096-0.072,0.084c-2.898-0.431-5.3-1.467-7.25-3.689c-0.084-0.096-0.13-0.096-0.199,0.008
		c-0.854,1.279-0.439,3.334,0.627,4.344c0.142,0.135,0.287,0.269,0.444,0.392c-0.057,0.012-0.766-0.065-1.397-0.392
		c-0.086-0.054-0.127-0.023-0.135,0.072c-0.008,0.139,0.004,0.266,0.022,0.416c0.163,1.296,1.062,2.495,2.291,2.963
		c0.146,0.061,0.308,0.115,0.464,0.142c-0.279,0.062-0.568,0.105-1.371,0.042c-0.1-0.02-0.139,0.031-0.1,0.127
		c0.604,1.646,1.906,2.135,2.882,2.414c0.131,0.022,0.263,0.022,0.394,0.053c-0.009,0.012-0.017,0.012-0.023,0.023
		c-0.324,0.494-1.446,0.86-1.969,1.043c-0.95,0.333-1.985,0.482-2.989,0.383c-0.161-0.023-0.194-0.021-0.238,0
		c-0.044,0.027-0.006,0.066,0.046,0.107c0.204,0.135,0.411,0.254,0.623,0.369c0.639,0.338,1.303,0.607,1.998,0.799
		c3.592,0.992,7.637,0.264,10.334-2.416c2.117-2.104,2.859-5.005,2.859-7.91c0-0.113,0.135-0.177,0.215-0.236
		c0.551-0.414,0.988-0.91,1.4-1.463c0.092-0.125,0.086-0.234,0.086-0.28c0-0.008,0-0.015,0-0.015
		C147.318,77.795,147.323,77.809,147.252,77.842z"/>
	<path fill="#03022D" d="M134.958,90.525C134.934,90.526,134.67,90.525,134.958,90.525
		C134.958,90.525,134.911,90.525,134.958,90.525z"/>
	<path fill="#03022D" d="M135.55,90.54C135.55,90.511,135.859,90.54,135.55,90.54C135.55,90.525,135.588,90.54,135.55,90.54z"/>
	<path fill="#03022D" d="M141.768,76.127c-0.02,0.016-0.045,0.016-0.072,0C141.723,76.127,141.748,76.127,141.768,76.127z"/>
</g>
</svg>
