<?xml version="1.0" encoding="utf-8"?>
<!-- Generator: Adobe Illustrator 16.0.0, SVG Export Plug-In . SVG Version: 6.00 Build 0)  -->
<!DOCTYPE svg PUBLIC "-//W3C//DTD SVG 1.1//EN" "http://www.w3.org/Graphics/SVG/1.1/DTD/svg11.dtd">
<svg version="1.1" id="Layer_1" xmlns="http://www.w3.org/2000/svg" xmlns:xlink="http://www.w3.org/1999/xlink" x="0px" y="0px"
	 width="304px" height="362px" viewBox="0 0 304 362" enable-background="new 0 0 304 362" xml:space="preserve">
<g>
	<g>
		<path fill="#FFFFFF" d="M145.016,279.527c-9.496,0-18.899,1.871-27.672,5.506c-8.773,3.635-16.744,8.962-23.458,15.678
			s-12.039,14.689-15.67,23.463c-3.631,8.775-5.499,18.178-5.496,27.675c0,2.56,1.017,5.015,2.827,6.824
			c1.81,1.811,4.265,2.827,6.825,2.827h141.837c2.561,0,5.016-1.017,6.825-2.827c1.81-1.81,2.827-4.265,2.827-6.824
			c0.002-9.499-1.865-18.904-5.5-27.681c-3.633-8.776-8.959-16.75-15.676-23.466s-14.69-12.043-23.467-15.677
			c-8.775-3.633-18.182-5.502-27.68-5.498H145.016z"/>
		<circle fill="#FFFFFF" cx="153.29" cy="217.347" r="42.75"/>
	</g>
	<g>
		<circle fill="#F8CD2B" cx="39.5" cy="245.876" r="29.021"/>
		<g>
			<path fill="#03022D" d="M33.975,251.348l-8.762-5.442l8.762-5.444c0.571-0.354,0.746-1.104,0.391-1.675
				c-0.354-0.57-1.104-0.745-1.674-0.392l-10.329,6.418c-0.339,0.211-0.518,0.563-0.549,0.934c-0.01,0.053-0.003,0.105-0.006,0.159
				c0.003,0.054-0.003,0.104,0.006,0.157c0.031,0.37,0.209,0.723,0.549,0.934l10.328,6.418c0.57,0.354,1.32,0.18,1.675-0.391
				S34.545,251.703,33.975,251.348z"/>
			<path fill="#03022D" d="M57.191,245.906c-0.002-0.055,0.003-0.106-0.006-0.16c-0.031-0.37-0.209-0.723-0.549-0.934l-10.329-6.418
				c-0.57-0.354-1.32-0.179-1.674,0.392s-0.179,1.32,0.391,1.675l8.762,5.444l-8.762,5.444c-0.57,0.354-0.746,1.104-0.391,1.674
				s1.104,0.746,1.675,0.392l10.328-6.417c0.34-0.212,0.519-0.565,0.549-0.936C57.194,246.01,57.188,245.959,57.191,245.906z"/>
			<path fill="#03022D" d="M35.667,259.546l5.487-27.811c0.13-0.659,0.77-1.088,1.428-0.958l0,0c0.659,0.131,1.088,0.77,0.958,1.429
				l-5.487,27.811c-0.13,0.659-0.77,1.088-1.428,0.958l0,0C35.966,260.844,35.538,260.205,35.667,259.546z"/>
		</g>
	</g>
	<g>
		<path fill="#F8CD2B" d="M278.861,209.748l-8.262-4.8c-0.955-0.556-2.179-0.23-2.734,0.725l-23.432,40.334
			c-0.187-0.031-0.369,0.11-0.348,0.316l1.186,11.247c0.022,0.203,0.233,0.324,0.42,0.244l10.358-4.541
			c0.19-0.082,0.222-0.311,0.104-0.457l19.644-33.811c0-0.001,0-0.001,0-0.001v-0.001l3.789-6.521
			C280.141,211.527,279.816,210.303,278.861,209.748z M255.303,252.289l-9.99-5.806l19.095-32.866
			c0.022,0.015,0.035,0.039,0.06,0.053l9.856,5.726c0.023,0.014,0.051,0.014,0.075,0.025L255.303,252.289z M278.721,211.98
			l-3.255,5.604c-0.022-0.016-0.036-0.039-0.06-0.053l-9.855-5.727c-0.024-0.014-0.052-0.014-0.076-0.025l3.256-5.604
			c0.277-0.477,0.89-0.64,1.367-0.362l8.262,4.801C278.837,210.891,278.999,211.502,278.721,211.98z"/>
		<path fill="#FFFFFF" d="M301.77,223.057l-9.859-5.728c-0.955-0.556-2.18-0.231-2.734,0.726l-5.025,8.65
			c-0.001,0.001-0.002,0.001-0.002,0.002s0,0.002-0.001,0.002l-8.818,15.18c-0.001,0.001-0.001,0.001-0.002,0.002
			s-0.001,0.002-0.001,0.003l-2.937,5.054c-0.001,0.002-0.002,0.003-0.003,0.004s-0.001,0.003-0.002,0.005l-2.938,5.057
			l-0.001,0.001c0,0,0,0.001-0.001,0.002l-2.938,5.056c0,0.001-0.001,0.002-0.002,0.003s-0.001,0.002-0.001,0.003l-4.853,8.353
			c-0.555,0.954-0.23,2.178,0.725,2.733l9.859,5.729c0.955,0.555,2.18,0.229,2.734-0.726l27.524-47.376
			C303.05,224.836,302.725,223.611,301.77,223.057z M301.63,225.289l-27.524,47.376c-0.276,0.478-0.889,0.64-1.366,0.362
			l-9.86-5.729c-0.479-0.276-0.64-0.889-0.361-1.366l4.319-7.436c0.022,0.016,0.036,0.039,0.06,0.053l5.061,2.939
			c0.516,0.3,1.175,0.125,1.475-0.391c0.299-0.515,0.124-1.174-0.391-1.474l-5.062-2.94c-0.023-0.014-0.05-0.014-0.074-0.025
			l1.872-3.224c0.022,0.016,0.036,0.039,0.06,0.053l5.062,2.94c0.515,0.299,1.175,0.124,1.474-0.391
			c0.3-0.516,0.124-1.175-0.391-1.475l-5.062-2.939c-0.023-0.014-0.051-0.014-0.075-0.025l1.874-3.225
			c0.021,0.016,0.035,0.039,0.059,0.053l5.061,2.939c0.516,0.3,1.176,0.125,1.475-0.391c0.299-0.515,0.124-1.174-0.391-1.474
			l-5.062-2.94c-0.023-0.014-0.05-0.014-0.074-0.025l1.873-3.223c0.021,0.015,0.035,0.038,0.059,0.052l5.062,2.94
			c0.515,0.299,1.175,0.125,1.474-0.391c0.3-0.515,0.124-1.175-0.391-1.475l-5.062-2.939c-0.023-0.014-0.051-0.014-0.074-0.025
			l1.873-3.225c0.022,0.016,0.036,0.039,0.06,0.053l5.062,2.941c0.515,0.299,1.174,0.124,1.474-0.391
			c0.299-0.516,0.124-1.176-0.391-1.475l-5.062-2.94c-0.023-0.014-0.051-0.014-0.075-0.025l1.873-3.224
			c0.022,0.016,0.035,0.039,0.06,0.053l5.061,2.94c0.516,0.3,1.175,0.124,1.475-0.391c0.299-0.515,0.123-1.175-0.391-1.474
			l-5.063-2.941c-0.023-0.014-0.05-0.014-0.074-0.025l1.872-3.223c0.022,0.016,0.036,0.039,0.06,0.053l5.061,2.939
			c0.516,0.3,1.176,0.125,1.475-0.391c0.299-0.514,0.124-1.174-0.391-1.473l-5.062-2.941c-0.023-0.014-0.051-0.014-0.074-0.025
			l4.493-7.734c0.277-0.479,0.889-0.641,1.367-0.363l9.859,5.729C301.745,224.2,301.908,224.813,301.63,225.289z"/>
	</g>
	<g>
		<path fill="#F8CD2B" d="M42.132,119.166h57.353c0.926,0,1.676,0.75,1.676,1.676l0,0c0,0.926-0.75,1.676-1.676,1.676H42.132
			c-0.926,0-1.676-0.75-1.676-1.676l0,0C40.456,119.917,41.207,119.166,42.132,119.166z"/>
		<path fill="#F8CD2B" d="M42.132,129.508h40.561c0.926,0,1.676,0.75,1.676,1.676l0,0c0,0.925-0.75,1.676-1.676,1.676H42.132
			c-0.926,0-1.676-0.75-1.676-1.676l0,0C40.456,130.258,41.207,129.508,42.132,129.508z"/>
		<path fill="#FFFFFF" d="M42.132,148.961h57.353c0.926,0,1.676,0.75,1.676,1.676l0,0c0,0.925-0.75,1.676-1.676,1.676H42.132
			c-0.926,0-1.676-0.75-1.676-1.676l0,0C40.456,149.711,41.207,148.961,42.132,148.961z"/>
		<path fill="#FFFFFF" d="M42.132,159.303h57.353c0.926,0,1.676,0.75,1.676,1.676l0,0c0,0.926-0.75,1.676-1.676,1.676H42.132
			c-0.926,0-1.676-0.75-1.676-1.676l0,0C40.456,160.053,41.207,159.303,42.132,159.303z"/>
		<path fill="#FFFFFF" d="M15.698,162.654H2.5c-1.103,0-2-0.897-2-2v-12.543c0-1.103,0.897-2,2-2h13.198c1.103,0,2,0.897,2,2v12.543
			C17.698,161.757,16.801,162.654,15.698,162.654z M2.5,147.611c-0.276,0-0.5,0.224-0.5,0.5v12.543c0,0.276,0.224,0.5,0.5,0.5
			h13.198c0.276,0,0.5-0.224,0.5-0.5v-12.543c0-0.276-0.224-0.5-0.5-0.5H2.5z"/>
		<path fill="#F8CD2B" d="M11.778,127.805l-4.528-4.71c-0.634-0.679-0.634-1.268,0-1.901c0.634-0.634,1.223-0.634,1.902,0
			l3.713,3.667l8.966-8.965c0.634-0.634,1.223-0.634,1.857,0c0.634,0.633,0.634,1.222,0.045,1.901l-10.007,10.008H11.778z
			 M13.68,127.805c-0.68,0.634-1.268,0.634-1.902,0H13.68z"/>
		<path fill="#FFFFFF" d="M17.698,128.948v-0.752c0-0.379-0.308-0.688-0.688-0.688h-0.125c-0.379,0-0.688,0.308-0.688,0.688v1.503
			c0,0.001,0,0.001,0,0.002v1.158c0,0.276-0.224,0.5-0.5,0.5H2.5c-0.276,0-0.5-0.224-0.5-0.5v-12.543c0-0.277,0.224-0.5,0.5-0.5
			h7.287h4.868h1.284c0.38,0,0.688-0.308,0.688-0.688v-0.125c0-0.379-0.308-0.688-0.688-0.688h-1.284H9.787H2.5
			c-1.104,0-2,0.895-2,2v12.543c0,1.104,0.896,2,2,2h13.198c1.104,0,2-0.896,2-2L17.698,128.948L17.698,128.948z"/>
	</g>
	<g>
		<path fill="#FFFFFF" d="M240.641,113.101v24.584c0,0.828-0.671,1.5-1.499,1.5l0,0c-0.829,0-1.5-0.671-1.5-1.5v-24.584
			c0-0.828,0.671-1.5,1.5-1.5l0,0C239.97,111.601,240.641,112.272,240.641,113.101z"/>
		<path fill="#FFFFFF" d="M223.008,111.601h-20.27c-0.828,0-1.5,0.671-1.5,1.5c0,0.007,0.002,0.013,0.002,0.02v24.565
			c0,0.828,0.671,1.5,1.499,1.5s1.499-0.671,1.499-1.5V114.6h18.77c0.828,0,1.499-0.671,1.499-1.5
			C224.507,112.272,223.836,111.601,223.008,111.601z"/>
		<path fill="#F8CD2B" d="M190.605,133.658h24.267c0.552,0,1,0.447,1,1v9.053c0,0.552-0.448,1-1,1h-24.267c-0.553,0-1-0.448-1-1
			v-9.053C189.605,134.105,190.053,133.658,190.605,133.658z"/>
		<path fill="#FFFFFF" d="M277.041,113.1c0-0.828-0.671-1.5-1.5-1.5h-20.269c-0.828,0-1.499,0.671-1.499,1.5s0.671,1.5,1.499,1.5
			h18.77v23.085c0,0.828,0.671,1.5,1.499,1.5s1.5-0.671,1.5-1.5V113.1L277.041,113.1C277.041,113.1,277.041,113.1,277.041,113.1z"/>
		<path fill="#F8CD2B" d="M287.842,133.658h-24.268c-0.553,0-1,0.447-1,1v9.053c0,0.552,0.447,1,1,1h24.268c0.553,0,1-0.448,1-1
			v-9.053C288.842,134.105,288.395,133.658,287.842,133.658z"/>
		<path fill="#F8CD2B" d="M227.007,133.658h24.268c0.552,0,1,0.447,1,1v9.053c0,0.552-0.448,1-1,1h-24.268c-0.552,0-1-0.448-1-1
			v-9.053C226.007,134.105,226.455,133.658,227.007,133.658z"/>
		<path fill="#F8CD2B" d="M223.333,104.465h31.724c0.553,0,1,0.448,1,1v14.196c0,0.552-0.447,1-1,1h-31.724c-0.552,0-1-0.448-1-1
			v-14.196C222.333,104.913,222.781,104.465,223.333,104.465z"/>
	</g>
	<g>
		<path fill="#F8CD2B" d="M123.55,68.863c2.531,1.752,4.28,4.474,4.749,7.4l0.556,3.475c0.161,1.006,1.115,1.697,2.121,1.537
			l23.777-3.806c1.006-0.161,1.697-1.116,1.536-2.122l-0.541-3.384c-0.482-3.018,0.252-6.043,2.048-8.3
			c4.36-5.575,6.295-12.825,5.183-19.775c-1.112-6.95-5.107-13.157-10.883-17.016c-5.897-4.027-12.953-5.336-19.922-3.752
			c-12.397,2.829-21.062,14.908-19.697,27.539C113.267,57.941,117.35,64.697,123.55,68.863z M116.134,50.072
			c-1.163-10.787,6.273-21.169,16.87-23.521c5.977-1.332,11.969-0.228,17.017,3.185c5.047,3.413,8.319,8.61,9.27,14.555
			c0.951,5.944-0.672,12.207-4.418,16.933c-2.41,3.105-3.456,7.119-2.798,11.234l0.264,1.646l-20.119,3.22l-0.264-1.646
			c-0.629-3.932-2.996-7.586-6.361-9.861C120.334,62.25,116.885,56.518,116.134,50.072z"/>
		<path fill="#FFFFFF" d="M155.191,80.212l-23.776,3.806c-1.006,0.161-1.697,1.116-1.536,2.122c0.161,1.006,1.115,1.697,2.121,1.536
			l23.777-3.806c1.006-0.161,1.697-1.116,1.535-2.122C157.152,80.742,156.198,80.051,155.191,80.212z"/>
		<path fill="#FFFFFF" d="M154.665,88.738c-0.161-1.006-1.116-1.697-2.122-1.537l-16.461,2.635
			c-1.006,0.161-1.697,1.116-1.536,2.122c0.161,1.006,1.116,1.698,2.122,1.537l16.461-2.635
			C154.135,90.698,154.826,89.744,154.665,88.738z"/>
		<path fill="#FFFFFF" d="M97.269,24.938l10.059,4.45c0.583,0.258,0.847,0.94,0.589,1.524l0,0c-0.258,0.583-0.94,0.847-1.524,0.589
			l-10.059-4.45c-0.583-0.258-0.847-0.94-0.589-1.524l0,0C96.002,24.943,96.685,24.68,97.269,24.938z"/>
		<path fill="#FFFFFF" d="M112.146,9.457l6.486,8.883c0.376,0.516,0.264,1.238-0.251,1.615l0,0
			c-0.516,0.376-1.238,0.263-1.615-0.252l-6.486-8.883c-0.376-0.516-0.264-1.238,0.251-1.615l0,0
			C111.046,8.829,111.769,8.942,112.146,9.457z"/>
		<path fill="#FFFFFF" d="M130.77,1.484l1.98,10.819c0.115,0.628-0.301,1.229-0.928,1.345l0,0c-0.628,0.115-1.229-0.301-1.345-0.929
			L128.497,1.9c-0.115-0.627,0.301-1.229,0.929-1.344l0,0C130.053,0.441,130.655,0.857,130.77,1.484z"/>
		<path fill="#FFFFFF" d="M153.637,4.346l-4.822,9.885c-0.28,0.574-0.972,0.812-1.545,0.532l0,0
			c-0.574-0.28-0.812-0.971-0.532-1.545l4.822-9.885c0.28-0.573,0.972-0.812,1.545-0.532l0,0
			C153.68,3.081,153.917,3.773,153.637,4.346z"/>
		<path fill="#FFFFFF" d="M170.208,14.74l-6.923,8.547c-0.401,0.496-1.129,0.572-1.625,0.171l0,0
			c-0.495-0.402-0.572-1.129-0.17-1.625l6.922-8.547c0.402-0.496,1.129-0.572,1.625-0.171l0,0
			C170.533,13.517,170.609,14.244,170.208,14.74z"/>
	</g>
</g>
</svg>
