<svg width="304" height="362" viewBox="0 0 304 362" fill="none" xmlns="http://www.w3.org/2000/svg">
<path d="M145.016 279.527C135.52 279.527 126.117 281.398 117.344 285.033C108.571 288.668 100.6 293.995 93.886 300.711C87.1724 307.427 81.8477 315.4 78.216 324.174C74.5843 332.949 72.7168 342.352 72.7202 351.849C72.7202 354.408 73.7371 356.863 75.5471 358.673C77.3571 360.483 79.8119 361.5 82.3717 361.5H224.209C226.769 361.5 229.224 360.483 231.034 358.673C232.844 356.863 233.861 354.408 233.861 351.849C233.864 342.35 231.996 332.944 228.362 324.168C224.729 315.392 219.402 307.418 212.686 300.702C205.969 293.986 197.995 288.659 189.219 285.025C180.443 281.392 171.037 279.524 161.539 279.527H145.016Z" fill="white"/>
<circle cx="153.29" cy="217.347" r="42.7495" fill="white" stroke="#03022D" stroke-width="1.2"/>
<circle cx="39.4999" cy="245.876" r="29.0204" fill="#F8CD2B"/>
<rect x="21.3301" y="245.454" width="14.5916" height="2.43194" rx="1.21597" transform="rotate(-31.8536 21.3301 245.454)" fill="#03022D"/>
<rect x="35.0078" y="251.99" width="14.5916" height="2.43194" rx="1.21597" transform="scale(-1 1) rotate(-31.8536 35.0078 251.99)" fill="#03022D"/>
<rect x="57.6689" y="245.454" width="14.5916" height="2.43194" rx="1.21597" transform="scale(-1 1) rotate(-31.8536 57.6689 245.454)" fill="#03022D"/>
<rect x="43.9912" y="251.991" width="14.5916" height="2.43194" rx="1.21597" transform="rotate(-31.8536 43.9912 251.991)" fill="#03022D"/>
<rect x="35.4321" y="260.739" width="30.779" height="2.43194" rx="1.21597" transform="rotate(-78.8385 35.4321 260.739)" fill="#03022D"/>
<path d="M245.691 257.814C245.505 257.895 245.294 257.773 245.272 257.571L244.086 246.323C244.06 246.079 244.322 245.909 244.535 246.032L256.08 252.74C256.292 252.863 256.275 253.176 256.05 253.274L245.691 257.814Z" fill="#F8CD2B"/>
<path fill-rule="evenodd" clip-rule="evenodd" d="M270.097 205.813L278.359 210.613C278.837 210.89 278.999 211.502 278.721 211.98L254.994 252.821L255.859 253.323L279.586 212.482C280.141 211.527 279.817 210.303 278.862 209.748L270.6 204.948C269.645 204.393 268.421 204.718 267.865 205.673L244.138 246.514L245.003 247.016L268.73 206.175C269.008 205.698 269.62 205.535 270.097 205.813Z" fill="#F8CD2B"/>
<rect x="264.618" y="211.263" width="13.5551" height="2.1565" rx="1.07825" transform="rotate(30.1555 264.618 211.263)" fill="#F8CD2B"/>
<path fill-rule="evenodd" clip-rule="evenodd" d="M301.268 223.922L291.408 218.194C290.93 217.916 290.318 218.078 290.041 218.556L262.517 265.931C262.239 266.409 262.401 267.021 262.879 267.298L272.739 273.027C273.217 273.304 273.829 273.142 274.106 272.665L301.63 225.289C301.908 224.812 301.745 224.2 301.268 223.922ZM291.91 217.329C290.955 216.774 289.731 217.098 289.176 218.054L261.652 265.429C261.097 266.384 261.422 267.608 262.377 268.163L272.237 273.892C273.192 274.447 274.416 274.122 274.971 273.167L302.495 225.791C303.05 224.836 302.725 223.612 301.77 223.057L291.91 217.329Z" fill="white"/>
<rect x="281.75" y="230.836" width="8.00985" height="2.1565" rx="1.07825" transform="rotate(30.1555 281.75 230.836)" fill="white"/>
<rect x="284.69" y="225.775" width="8.00985" height="2.1565" rx="1.07825" transform="rotate(30.1555 284.69 225.775)" fill="white"/>
<rect x="278.81" y="235.897" width="8.00985" height="2.1565" rx="1.07825" transform="rotate(30.1555 278.81 235.897)" fill="white"/>
<rect x="275.869" y="240.958" width="8.00985" height="2.1565" rx="1.07825" transform="rotate(30.1555 275.869 240.958)" fill="white"/>
<rect x="272.928" y="246.019" width="8.00985" height="2.1565" rx="1.07825" transform="rotate(30.1555 272.928 246.019)" fill="white"/>
<rect x="269.988" y="251.081" width="8.00985" height="2.1565" rx="1.07825" transform="rotate(30.1555 269.988 251.081)" fill="white"/>
<rect x="267.047" y="256.142" width="8.00985" height="2.1565" rx="1.07825" transform="rotate(30.1555 267.047 256.142)" fill="white"/>
<rect x="40.4561" y="119.166" width="60.7049" height="3.35201" rx="1.67601" fill="#F8CD2B"/>
<rect x="40.4561" y="129.508" width="43.9128" height="3.35201" rx="1.67601" fill="#F8CD2B"/>
<rect x="40.4561" y="148.961" width="60.7049" height="3.35201" rx="1.67601" fill="white"/>
<rect x="40.4561" y="159.303" width="60.7049" height="3.35201" rx="1.67601" fill="white"/>
<rect x="1.25" y="146.861" width="15.6982" height="15.0434" rx="1.25" stroke="white" stroke-width="1.5"/>
<path d="M11.7781 127.805L7.24988 123.095C6.61593 122.416 6.61593 121.827 7.24988 121.194C7.88383 120.56 8.4725 120.56 9.15173 121.194L12.8649 124.861L21.8307 115.896C22.4647 115.262 23.0534 115.262 23.6873 115.896C24.3213 116.529 24.3213 117.118 23.7326 117.797L13.7252 127.805H11.7781ZM13.68 127.805C13.0007 128.439 12.412 128.439 11.7781 127.805H13.68Z" fill="#F8CD2B"/>
<path fill-rule="evenodd" clip-rule="evenodd" d="M14.6548 116.317H2.5C1.39551 116.317 0.5 117.212 0.5 118.317V130.86C0.5 131.964 1.39551 132.86 2.5 132.86H15.6982C16.8027 132.86 17.6982 131.964 17.6982 130.86V128.948H16.1982V130.86C16.1982 131.136 15.9746 131.36 15.6982 131.36H2.5C2.22363 131.36 2 131.136 2 130.86V118.317C2 118.04 2.22363 117.817 2.5 117.817H14.6548V116.317Z" fill="white"/>
<rect x="9.09912" y="116.317" width="7.52752" height="2.31239" rx="0.6875" fill="white"/>
<rect x="17.6978" y="127.509" width="2.87805" height="2.31239" rx="0.6875" transform="rotate(90 17.6978 127.509)" fill="white"/>
<rect x="204.239" y="111.601" width="27.5835" height="2.99927" rx="1.49963" transform="rotate(90 204.239 111.601)" fill="white"/>
<rect x="240.641" y="111.601" width="27.5835" height="2.99927" rx="1.49963" transform="rotate(90 240.641 111.601)" fill="white"/>
<rect x="224.507" y="114.6" width="23.2683" height="2.99927" rx="1.49963" transform="rotate(-180 224.507 114.6)" fill="white"/>
<rect x="189.605" y="133.658" width="26.2672" height="11.0529" rx="1" fill="#F8CD2B"/>
<rect x="274.042" y="111.601" width="27.5835" height="2.99927" rx="1.49963" transform="scale(1 -1) rotate(-90 274.042 111.601)" fill="white"/>
<rect x="253.773" y="114.6" width="23.2683" height="2.99927" rx="1.49963" transform="scale(1 -1)" fill="white"/>
<rect x="288.675" y="133.658" width="26.2672" height="11.0529" rx="1" transform="scale(-1 1)" fill="#F8CD2B"/>
<rect x="226.007" y="133.658" width="26.2672" height="11.0529" rx="1" fill="#F8CD2B"/>
<rect x="222.333" y="104.465" width="33.7241" height="16.1957" rx="1" fill="#F8CD2B"/>
<path d="M123.55 68.863C126.081 70.6151 127.83 73.3365 128.299 76.2629L128.855 79.738C129.016 80.7439 129.97 81.4352 130.976 81.2742L154.753 77.4687C155.759 77.3077 156.45 76.3529 156.289 75.347L155.748 71.9633C155.265 68.9455 156 65.9203 157.796 63.6632C162.156 58.0882 164.091 50.838 162.978 43.8879C161.866 36.9378 157.871 30.7304 152.095 26.8715C146.198 22.8443 139.142 21.5351 132.173 23.1194C119.776 25.9477 111.111 38.0268 112.476 50.6578C113.267 57.9408 117.35 64.6969 123.55 68.863ZM116.134 50.0723C114.971 39.2849 122.407 28.9032 133.004 26.5506C138.981 25.2187 144.973 26.3231 150.021 29.7358C155.069 33.1484 158.34 38.3463 159.291 44.2905C160.242 50.2346 158.619 56.4972 154.873 61.2235C152.463 64.3293 151.417 68.3421 152.075 72.4574L152.339 74.1034L132.22 77.3235L131.956 75.6774C131.327 71.7451 128.96 68.0909 125.595 65.8158C120.334 62.2495 116.885 56.5176 116.134 50.0723Z" fill="#F8CD2B"/>
<path d="M155.192 80.2121L131.415 84.0176C130.409 84.1786 129.718 85.1334 129.879 86.1394C130.04 87.1453 130.994 87.8366 132 87.6756L155.777 83.8701C156.783 83.7091 157.474 82.7543 157.313 81.7484C157.152 80.7424 156.198 80.0511 155.192 80.2121Z" fill="white"/>
<path d="M154.665 88.7377C154.504 87.7317 153.549 87.0404 152.543 87.2014L136.082 89.836C135.076 89.997 134.385 90.9518 134.546 91.9577C134.707 92.9637 135.662 93.655 136.668 93.494L153.129 90.8594C154.135 90.6984 154.826 89.7436 154.665 88.7377Z" fill="white"/>
<rect x="96.2119" y="24.4702" width="13.3096" height="2.31067" rx="1.15533" transform="rotate(23.8629 96.2119 24.4702)" fill="white"/>
<rect x="111.464" y="8.52402" width="13.3096" height="2.31067" rx="1.15533" transform="rotate(53.8639 111.464 8.52402)" fill="white"/>
<rect x="130.562" y="0.348099" width="13.3096" height="2.31067" rx="1.15533" transform="rotate(79.6261 130.562 0.348099)" fill="white"/>
<rect x="154.144" y="3.30795" width="13.3096" height="2.31067" rx="1.15533" transform="rotate(116.006 154.144 3.30795)" fill="white"/>
<rect x="170.935" y="13.8424" width="13.3096" height="2.31067" rx="1.15533" transform="rotate(129.003 170.935 13.8424)" fill="white"/>
</svg>
